<?xml version="1.0" standalone="no"?><svg xmlns:xlink="http://www.w3.org/1999/xlink" xmlns="http://www.w3.org/2000/svg" viewBox="0 0 1000 642.8588594362068" preserveAspectRatio="xMaxYMax slice"><g transform="scale(1.0013377872838112)"><rect x="0" y="0" width="998.6666666666666" height="642" fill="#ffffff"/><circle cx="35.665" cy="35.665" r="7.135" fill="#bfb9d0"/><circle cx="107.00500000000001" cy="35.665" r="7.135" fill="#bbb6ce"/><circle cx="178.33499999999998" cy="35.665" r="7.135" fill="#f2f1f5"/><circle cx="249.665" cy="35.665" r="7.135" fill="#ffb685"/><circle cx="321.005" cy="35.665" r="7.135" fill="#7e73a1"/><circle cx="392.335" cy="35.665" r="7.135" fill="#ffd1b3"/><circle cx="463.66499999999996" cy="35.665" r="7.135" fill="#ffbe93"/><circle cx="535.005" cy="35.665" r="7.135" fill="#ff802b"/><circle cx="606.335" cy="35.665" r="7.135" fill="#37276e"/><circle cx="677.665" cy="35.665" r="7.135" fill="#ffdac2"/><circle cx="749.005" cy="35.665" r="7.135" fill="#ffdec8"/><circle cx="820.335" cy="35.665" r="7.135" fill="#a199bb"/><circle cx="891.665" cy="35.665" r="7.135" fill="#2e1c67"/><circle cx="963.005" cy="35.665" r="7.135" fill="#2e1c67"/><circle cx="35.665" cy="107.00500000000001" r="7.135" fill="#7c71a0"/><circle cx="107.00500000000001" cy="107.00500000000001" r="7.135" fill="#ffc096"/><circle cx="178.33499999999998" cy="107.00500000000001" r="7.135" fill="#c4bfd4"/><circle cx="249.665" cy="107.00500000000001" r="7.135" fill="#22105f"/><circle cx="321.005" cy="107.00500000000001" r="7.135" fill="#ffc59e"/><circle cx="392.335" cy="107.00500000000001" r="7.135" fill="#261361"/><circle cx="463.66499999999996" cy="107.00500000000001" r="7.135" fill="#ffffff"/><circle cx="535.005" cy="107.00500000000001" r="7.135" fill="#3d2d72"/><circle cx="606.335" cy="107.00500000000001" r="7.135" fill="#ffaf79"/><circle cx="677.665" cy="107.00500000000001" r="7.135" fill="#b4aec9"/><circle cx="749.005" cy="107.00500000000001" r="7.135" fill="#ffeadc"/><circle cx="820.335" cy="107.00500000000001" r="7.135" fill="#6a5d93"/><circle cx="891.665" cy="107.00500000000001" r="7.135" fill="#766b9c"/><circle cx="963.005" cy="107.00500000000001" r="7.135" fill="#281663"/><circle cx="35.665" cy="178.33499999999998" r="7.135" fill="#ffb888"/><circle cx="107.00500000000001" cy="178.33499999999998" r="7.135" fill="#ffc9a5"/><circle cx="178.33499999999998" cy="178.33499999999998" r="7.135" fill="#ff7e28"/><circle cx="249.665" cy="178.33499999999998" r="7.135" fill="#9289b0"/><circle cx="321.005" cy="178.33499999999998" r="7.135" fill="#fff4ed"/><circle cx="392.335" cy="178.33499999999998" r="7.135" fill="#fffefe"/><circle cx="463.66499999999996" cy="178.33499999999998" r="7.135" fill="#fff2ea"/><circle cx="535.005" cy="178.33499999999998" r="7.135" fill="#a49cbd"/><circle cx="606.335" cy="178.33499999999998" r="7.135" fill="#ffeee2"/><circle cx="677.665" cy="178.33499999999998" r="7.135" fill="#fafafc"/><circle cx="749.005" cy="178.33499999999998" r="7.135" fill="#ffe8d8"/><circle cx="820.335" cy="178.33499999999998" r="7.135" fill="#cfcbdc"/><circle cx="891.665" cy="178.33499999999998" r="7.135" fill="#7e73a1"/><circle cx="963.005" cy="178.33499999999998" r="7.135" fill="#b2acc7"/><circle cx="35.665" cy="249.665" r="7.135" fill="#ff7d26"/><circle cx="107.00500000000001" cy="249.665" r="7.135" fill="#ffdac2"/><circle cx="178.33499999999998" cy="249.665" r="7.135" fill="#685b91"/><circle cx="249.665" cy="249.665" r="7.135" fill="#ff8d40"/><circle cx="321.005" cy="249.665" r="7.135" fill="#ffe0ca"/><circle cx="392.335" cy="249.665" r="7.135" fill="#9a92b6"/><circle cx="463.66499999999996" cy="249.665" r="7.135" fill="#ff9147"/><circle cx="535.005" cy="249.665" r="7.135" fill="#958cb2"/><circle cx="606.335" cy="249.665" r="7.135" fill="#ff781d"/><circle cx="677.665" cy="249.665" r="7.135" fill="#453578"/><circle cx="749.005" cy="249.665" r="7.135" fill="#39286f"/><circle cx="820.335" cy="249.665" r="7.135" fill="#ff9045"/><circle cx="891.665" cy="249.665" r="7.135" fill="#ff781d"/><circle cx="963.005" cy="249.665" r="7.135" fill="#ffcaa6"/><circle cx="35.665" cy="321.005" r="7.135" fill="#6a5d93"/><circle cx="107.00500000000001" cy="321.005" r="7.135" fill="#ff8b3c"/><circle cx="178.33499999999998" cy="321.005" r="7.135" fill="#ffbd91"/><circle cx="249.665" cy="321.005" r="7.135" fill="#ffe0cb"/><circle cx="321.005" cy="321.005" r="7.135" fill="#d7d3e2"/><circle cx="392.335" cy="321.005" r="7.135" fill="#271562"/><circle cx="463.66499999999996" cy="321.005" r="7.135" fill="#8f85ae"/><circle cx="535.005" cy="321.005" r="7.135" fill="#ffaf79"/><circle cx="606.335" cy="321.005" r="7.135" fill="#ffaa71"/><circle cx="677.665" cy="321.005" r="7.135" fill="#c5c0d5"/><circle cx="749.005" cy="321.005" r="7.135" fill="#60528c"/><circle cx="820.335" cy="321.005" r="7.135" fill="#75699b"/><circle cx="891.665" cy="321.005" r="7.135" fill="#e2dfea"/><circle cx="963.005" cy="321.005" r="7.135" fill="#fff1e8"/><circle cx="35.665" cy="392.335" r="7.135" fill="#ff781d"/><circle cx="107.00500000000001" cy="392.335" r="7.135" fill="#4f4180"/><circle cx="178.33499999999998" cy="392.335" r="7.135" fill="#ffe9db"/><circle cx="249.665" cy="392.335" r="7.135" fill="#e5e3ec"/><circle cx="321.005" cy="392.335" r="7.135" fill="#ffe8d8"/><circle cx="392.335" cy="392.335" r="7.135" fill="#8278a4"/><circle cx="463.66499999999996" cy="392.335" r="7.135" fill="#fff4ec"/><circle cx="535.005" cy="392.335" r="7.135" fill="#fff3ea"/><circle cx="606.335" cy="392.335" r="7.135" fill="#251361"/><circle cx="677.665" cy="392.335" r="7.135" fill="#ffceac"/><circle cx="749.005" cy="392.335" r="7.135" fill="#fff7f2"/><circle cx="820.335" cy="392.335" r="7.135" fill="#463779"/><circle cx="891.665" cy="392.335" r="7.135" fill="#fffdfc"/><circle cx="963.005" cy="392.335" r="7.135" fill="#ffddc7"/><circle cx="35.665" cy="463.66499999999996" r="7.135" fill="#8278a4"/><circle cx="107.00500000000001" cy="463.66499999999996" r="7.135" fill="#ffd7bd"/><circle cx="178.33499999999998" cy="463.66499999999996" r="7.135" fill="#ff9249"/><circle cx="249.665" cy="463.66499999999996" r="7.135" fill="#fff0e6"/><circle cx="321.005" cy="463.66499999999996" r="7.135" fill="#5c4e89"/><circle cx="392.335" cy="463.66499999999996" r="7.135" fill="#291764"/><circle cx="463.66499999999996" cy="463.66499999999996" r="7.135" fill="#a29bbc"/><circle cx="535.005" cy="463.66499999999996" r="7.135" fill="#d6d2e1"/><circle cx="606.335" cy="463.66499999999996" r="7.135" fill="#ffdbc2"/><circle cx="677.665" cy="463.66499999999996" r="7.135" fill="#c6c1d6"/><circle cx="749.005" cy="463.66499999999996" r="7.135" fill="#9086ae"/><circle cx="820.335" cy="463.66499999999996" r="7.135" fill="#ffe2cf"/><circle cx="891.665" cy="463.66499999999996" r="7.135" fill="#74689a"/><circle cx="963.005" cy="463.66499999999996" r="7.135" fill="#fff5ee"/><circle cx="35.665" cy="535.005" r="7.135" fill="#ffdfc9"/><circle cx="107.00500000000001" cy="535.005" r="7.135" fill="#ff8430"/><circle cx="178.33499999999998" cy="535.005" r="7.135" fill="#403074"/><circle cx="249.665" cy="535.005" r="7.135" fill="#ffaa71"/><circle cx="321.005" cy="535.005" r="7.135" fill="#291764"/><circle cx="392.335" cy="535.005" r="7.135" fill="#b3adc8"/><circle cx="463.66499999999996" cy="535.005" r="7.135" fill="#32206a"/><circle cx="535.005" cy="535.005" r="7.135" fill="#ffede1"/><circle cx="606.335" cy="535.005" r="7.135" fill="#ff944b"/><circle cx="677.665" cy="535.005" r="7.135" fill="#9c94b7"/><circle cx="749.005" cy="535.005" r="7.135" fill="#9e96b8"/><circle cx="820.335" cy="535.005" r="7.135" fill="#ff7a21"/><circle cx="891.665" cy="535.005" r="7.135" fill="#e7e5ee"/><circle cx="963.005" cy="535.005" r="7.135" fill="#f4f3f7"/><circle cx="35.665" cy="606.335" r="7.135" fill="#ffc59e"/><circle cx="107.00500000000001" cy="606.335" r="7.135" fill="#564884"/><circle cx="178.33499999999998" cy="606.335" r="7.135" fill="#61548c"/><circle cx="249.665" cy="606.335" r="7.135" fill="#a199ba"/><circle cx="321.005" cy="606.335" r="7.135" fill="#c6c1d6"/><circle cx="392.335" cy="606.335" r="7.135" fill="#ff8736"/><circle cx="463.66499999999996" cy="606.335" r="7.135" fill="#251361"/><circle cx="535.005" cy="606.335" r="7.135" fill="#2a1864"/><circle cx="606.335" cy="606.335" r="7.135" fill="#413175"/><circle cx="677.665" cy="606.335" r="7.135" fill="#8a80aa"/><circle cx="749.005" cy="606.335" r="7.135" fill="#ffc6a0"/><circle cx="820.335" cy="606.335" r="7.135" fill="#ffe0ca"/><circle cx="891.665" cy="606.335" r="7.135" fill="#ff8736"/><circle cx="963.005" cy="606.335" r="7.135" fill="#ff9650"/></g></svg>