<?xml version="1.0" standalone="no"?><svg xmlns:xlink="http://www.w3.org/1999/xlink" xmlns="http://www.w3.org/2000/svg" viewBox="0 0 1000 642.8588594362068" preserveAspectRatio="xMaxYMax slice"><g transform="scale(1.0013377872838112)"><rect x="0" y="0" width="998.6666666666666" height="642" fill="#ffffff"/><rect x="0" y="0" width="71.33333333333333" height="71.33333333333333" fill="#ffffff"/><rect x="0" y="0" width="35.67" height="35.67" fill="#ff7518"/><circle cx="17.835" cy="17.835" r="17.835" fill="#1D0A5B"/><rect x="35.67" y="0" width="35.67" height="35.67" fill="#1D0A5B"/><rect x="35.67" y="0" width="35.67" height="35.67" fill="#1D0A5B"/><rect x="0" y="35.67" width="35.67" height="35.67" fill="#1D0A5B"/><circle cx="17.835" cy="53.505" r="17.835" fill="#ff7518"/><rect x="35.67" y="35.67" width="35.67" height="35.67" fill="#ff7518"/><rect x="35.67" y="35.67" width="35.67" height="35.67" fill="#1D0A5B"/><rect x="71.33333333333333" y="0" width="71.33333333333333" height="71.33333333333333" fill="#ffffff"/><rect x="71.33" y="0" width="35.67" height="35.67" fill="#ff7518"/><path d="M 71.33 35.67 A 35.67 35.67 0 0 0 107 0 L 71.33 0" fill="#ff7518"/><rect x="107" y="0" width="35.67" height="35.67" fill="#ff7518"/><path d="M 107 0 A 35.67 35.67 0 0 0 142.67000000000002 35.67 L 142.67000000000002 0" fill="#1D0A5B"/><rect x="71.33" y="35.67" width="35.67" height="35.67" fill="#1D0A5B"/><path d="M 71.33 35.67 A 35.67 35.67 0 0 1 107 71.34 L 71.33 71.34" fill="#ff7518"/><rect x="107" y="35.67" width="35.67" height="35.67" fill="#ff7518"/><path d="M 107 71.34 A 35.67 35.67 0 0 1  142.67000000000002 35.67 L 142.67000000000002 71.34" fill="#ff7518"/><rect x="142.67" y="0" width="71.33" height="71.33" fill="#1D0A5B"/><polygon points="142.67,0 214,71.33 142.67,71.33" fill="#1D0A5B"/><rect x="214" y="0" width="71.33" height="71.33" fill="#1D0A5B"/><rect x="214" y="0" width="71.33" height="71.33" fill="#1D0A5B"/><rect x="285.33" y="0" width="71.33" height="71.33" fill="#1D0A5B"/><path d="M 285.33 0 A 71.33 71.33 0 0 1 356.65999999999997 71.33 L 285.33 71.33" fill="#ff7518"/><rect x="356.66666666666663" y="0" width="71.33333333333333" height="71.33333333333333" fill="#ffffff"/><rect x="356.67" y="0" width="35.67" height="35.67" fill="#1D0A5B"/><polygon points="392.34000000000003,0 392.34000000000003,35.67 356.67,35.67" fill="#ff7518"/><rect x="392.33" y="0" width="35.67" height="35.67" fill="#ff7518"/><polygon points="392.33,0 428,35.67 392.33,35.67" fill="#1D0A5B"/><rect x="356.67" y="35.67" width="35.67" height="35.67" fill="#ff7518"/><polygon points="356.67,35.67 392.34000000000003,35.67 356.67,71.34" fill="#1D0A5B"/><rect x="392.33" y="35.67" width="35.67" height="35.67" fill="#1D0A5B"/><polygon points="392.33,35.67 428,35.67 428,71.34" fill="#ff7518"/><rect x="428" y="0" width="71.33333333333333" height="71.33333333333333" fill="#ffffff"/><rect x="428" y="0" width="35.67" height="35.67" fill="#1D0A5B"/><polygon points="463.67,0 463.67,35.67 428,35.67" fill="#1D0A5B"/><rect x="463.67" y="0" width="35.67" height="35.67" fill="#ff7518"/><polygon points="463.67,0 499.34000000000003,35.67 463.67,35.67" fill="#ff7518"/><rect x="428" y="35.67" width="35.67" height="35.67" fill="#1D0A5B"/><polygon points="428,35.67 463.67,35.67 428,71.34" fill="#ff7518"/><rect x="463.67" y="35.67" width="35.67" height="35.67" fill="#ff7518"/><polygon points="463.67,35.67 499.34000000000003,35.67 499.34000000000003,71.34" fill="#1D0A5B"/><rect x="499.33" y="0" width="71.33" height="71.33" fill="#ff7518"/><polygon points="570.66,0 570.66,71.33 499.33,71.33" fill="#ff7518"/><rect x="570.6666666666666" y="0" width="71.33333333333333" height="71.33333333333333" fill="#ffffff"/><rect x="570.67" y="0" width="35.67" height="35.67" fill="#1D0A5B"/><polygon points="606.3399999999999,0 606.3399999999999,35.67 570.67,35.67" fill="#ff7518"/><rect x="606.33" y="0" width="35.67" height="35.67" fill="#1D0A5B"/><polygon points="606.33,0 642,35.67 606.33,35.67" fill="#ff7518"/><rect x="570.67" y="35.67" width="35.67" height="35.67" fill="#ff7518"/><polygon points="570.67,35.67 606.3399999999999,35.67 570.67,71.34" fill="#1D0A5B"/><rect x="606.33" y="35.67" width="35.67" height="35.67" fill="#1D0A5B"/><polygon points="606.33,35.67 642,35.67 642,71.34" fill="#1D0A5B"/><rect x="642" y="0" width="71.33333333333333" height="71.33333333333333" fill="#ffffff"/><rect x="642" y="0" width="35.67" height="35.67" fill="#ff7518"/><polygon points="677.67,0 677.67,35.67 642,35.67" fill="#1D0A5B"/><rect x="677.67" y="0" width="35.67" height="35.67" fill="#ff7518"/><polygon points="677.67,0 713.3399999999999,0 677.67,35.67" fill="#1D0A5B"/><rect x="642" y="35.67" width="35.67" height="35.67" fill="#ff7518"/><polygon points="642,35.67 677.67,35.67 677.67,71.34" fill="#ff7518"/><rect x="677.67" y="35.67" width="35.67" height="35.67" fill="#ff7518"/><polygon points="677.67,35.67 713.3399999999999,71.34 677.67,71.34" fill="#1D0A5B"/><rect x="713.33" y="0" width="71.33" height="71.33" fill="#ff7518"/><rect x="713.33" y="0" width="71.33" height="71.33" fill="#1D0A5B"/><rect x="784.6666666666666" y="0" width="71.33333333333333" height="71.33333333333333" fill="#ffffff"/><rect x="784.67" y="0" width="35.67" height="35.67" fill="#1D0A5B"/><path d="M 784.67 0 A 35.67 35.67 0 0 1 820.3399999999999 35.67 L 784.67 35.67" fill="#ff7518"/><rect x="820.33" y="0" width="35.67" height="35.67" fill="#1D0A5B"/><path d="M 820.33 35.67 A 35.67 35.67 0 0 1  856 0 L 856 35.67" fill="#ff7518"/><rect x="784.67" y="35.67" width="35.67" height="35.67" fill="#1D0A5B"/><path d="M 784.67 71.34 A 35.67 35.67 0 0 0 820.3399999999999 35.67 L 784.67 35.67" fill="#ff7518"/><rect x="820.33" y="35.67" width="35.67" height="35.67" fill="#ff7518"/><path d="M 820.33 35.67 A 35.67 35.67 0 0 0 856 71.34 L 856 35.67" fill="#ff7518"/><rect x="856" y="0" width="71.33333333333333" height="71.33333333333333" fill="#ffffff"/><rect x="856" y="0" width="35.67" height="35.67" fill="#1D0A5B"/><polygon points="891.67,0 891.67,35.67 856,35.67" fill="#ff7518"/><rect x="891.67" y="0" width="35.67" height="35.67" fill="#ff7518"/><polygon points="891.67,0 927.3399999999999,0 891.67,35.67" fill="#ff7518"/><rect x="856" y="35.67" width="35.67" height="35.67" fill="#1D0A5B"/><polygon points="856,35.67 891.67,35.67 891.67,71.34" fill="#ff7518"/><rect x="891.67" y="35.67" width="35.67" height="35.67" fill="#ff7518"/><polygon points="891.67,35.67 927.3399999999999,71.34 891.67,71.34" fill="#ff7518"/><rect x="927.3333333333333" y="0" width="71.33333333333333" height="71.33333333333333" fill="#ffffff"/><rect x="927.33" y="0" width="35.67" height="35.67" fill="#1D0A5B"/><path d="M 927.33 0 A 35.67 35.67 0 0 0 963 35.67 L 963 0" fill="#1D0A5B"/><rect x="963" y="0" width="35.67" height="35.67" fill="#1D0A5B"/><path d="M 963 35.67 A 35.67 35.67 0 0 0 998.67 0 L 963 0" fill="#ff7518"/><rect x="927.33" y="35.67" width="35.67" height="35.67" fill="#1D0A5B"/><path d="M 927.33 71.34 A 35.67 35.67 0 0 1  963 35.67 L 963 71.34" fill="#ff7518"/><rect x="963" y="35.67" width="35.67" height="35.67" fill="#ff7518"/><path d="M 963 35.67 A 35.67 35.67 0 0 1 998.67 71.34 L 963 71.34" fill="#1D0A5B"/><rect x="0" y="71.33333333333333" width="71.33333333333333" height="71.33333333333333" fill="#ffffff"/><rect x="0" y="71.33" width="35.67" height="35.67" fill="#ff7518"/><path d="M 0 107 A 35.67 35.67 0 0 1 35.67 71.33 L 35.67 80.2475 A 26.7525 26.7525 0 0 0 8.9175 107" fill="#1D0A5B"/><rect x="35.67" y="71.33" width="35.67" height="35.67" fill="#ff7518"/><path d="M 35.67 71.33 A 35.67 35.67 0 0 1 71.34 107 L 62.4225 107 A 26.7525 26.7525 0 0 0 35.67 80.2475" fill="#1D0A5B"/><rect x="0" y="107" width="35.67" height="35.67" fill="#1D0A5B"/><path d="M 0 107 A 35.67 35.67 0 0 0 35.67 142.67000000000002 L 35.67 133.7525 A 26.7525 26.7525 0 0 1 8.9175 107" fill="#ff7518"/><rect x="35.67" y="107" width="35.67" height="35.67" fill="#ff7518"/><path d="M 35.67 142.67000000000002 A 35.67 35.67 0 0 0 71.34 107 L 62.4225 107 A 26.7525 26.7525 0 0 1 35.67 133.7525" fill="#1D0A5B"/><rect x="71.33" y="71.33" width="71.33" height="71.33" fill="#1D0A5B"/><path d="M 71.33 142.66 A 71.33 71.33 0 0 1  142.66 71.33 L 71.33 142.66 A 71.33 71.33 0 0 0 142.66 71.33" fill="#1D0A5B"/><rect x="142.66666666666666" y="71.33333333333333" width="71.33333333333333" height="71.33333333333333" fill="#ffffff"/><rect x="142.67" y="71.33" width="35.67" height="35.67" fill="#ff7518"/><path d="M 142.67 107 A 35.67 35.67 0 0 1 178.33999999999997 71.33 L 178.33999999999997 80.2475 A 26.7525 26.7525 0 0 0 151.58749999999998 107" fill="#ff7518"/><rect x="178.33" y="71.33" width="35.67" height="35.67" fill="#1D0A5B"/><path d="M 178.33 71.33 A 35.67 35.67 0 0 1 214 107 L 205.0825 107 A 26.7525 26.7525 0 0 0 178.33 80.2475" fill="#1D0A5B"/><rect x="142.67" y="107" width="35.67" height="35.67" fill="#ff7518"/><path d="M 142.67 107 A 35.67 35.67 0 0 0 178.33999999999997 142.67000000000002 L 178.33999999999997 133.7525 A 26.7525 26.7525 0 0 1 151.58749999999998 107" fill="#1D0A5B"/><rect x="178.33" y="107" width="35.67" height="35.67" fill="#ff7518"/><path d="M 178.33 142.67000000000002 A 35.67 35.67 0 0 0 214 107 L 205.0825 107 A 26.7525 26.7525 0 0 1 178.33 133.7525" fill="#1D0A5B"/><rect x="214" y="71.33" width="71.33" height="71.33" fill="#ff7518"/><rect x="214" y="71.33" width="71.33" height="71.33" fill="#1D0A5B"/><rect x="285.33" y="71.33" width="71.33" height="71.33" fill="#1D0A5B"/><rect x="285.33" y="71.33" width="71.33" height="71.33" fill="#ff7518"/><rect x="356.66666666666663" y="71.33333333333333" width="71.33333333333333" height="71.33333333333333" fill="#ffffff"/><rect x="356.67" y="71.33" width="35.67" height="35.67" fill="#1D0A5B"/><circle cx="374.505" cy="89.16499999999999" r="17.835" fill="#ff7518"/><rect x="392.33" y="71.33" width="35.67" height="35.67" fill="#1D0A5B"/><rect x="392.33" y="71.33" width="35.67" height="35.67" fill="#ff7518"/><rect x="356.67" y="107" width="35.67" height="35.67" fill="#1D0A5B"/><circle cx="374.505" cy="124.83500000000001" r="17.835" fill="#1D0A5B"/><rect x="392.33" y="107" width="35.67" height="35.67" fill="#1D0A5B"/><rect x="392.33" y="107" width="35.67" height="35.67" fill="#ff7518"/><rect x="428" y="71.33333333333333" width="71.33333333333333" height="71.33333333333333" fill="#ffffff"/><rect x="428" y="71.33" width="35.67" height="35.67" fill="#1D0A5B"/><path d="M 428 71.33 A 35.67 35.67 0 0 0 463.67 107 L 463.67 71.33" fill="#1D0A5B"/><rect x="463.67" y="71.33" width="35.67" height="35.67" fill="#ff7518"/><path d="M 463.67 107 A 35.67 35.67 0 0 0 499.34000000000003 71.33 L 463.67 71.33" fill="#ff7518"/><rect x="428" y="107" width="35.67" height="35.67" fill="#1D0A5B"/><path d="M 428 142.67000000000002 A 35.67 35.67 0 0 1  463.67 107 L 463.67 142.67000000000002" fill="#ff7518"/><rect x="463.67" y="107" width="35.67" height="35.67" fill="#ff7518"/><path d="M 463.67 107 A 35.67 35.67 0 0 1 499.34000000000003 142.67000000000002 L 463.67 142.67000000000002" fill="#1D0A5B"/><rect x="499.33" y="71.33" width="71.33" height="71.33" fill="#ff7518"/><path d="M 499.33 142.66 A 71.33 71.33 0 0 1  570.66 71.33 L 570.66 142.66" fill="#1D0A5B"/><rect x="570.6666666666666" y="71.33333333333333" width="71.33333333333333" height="71.33333333333333" fill="#ffffff"/><rect x="570.67" y="71.33" width="35.67" height="35.67" fill="#1D0A5B"/><polygon points="606.3399999999999,71.33 606.3399999999999,107 570.67,107" fill="#1D0A5B"/><rect x="606.33" y="71.33" width="35.67" height="35.67" fill="#ff7518"/><polygon points="606.33,71.33 642,107 606.33,107" fill="#ff7518"/><rect x="570.67" y="107" width="35.67" height="35.67" fill="#1D0A5B"/><polygon points="570.67,107 606.3399999999999,107 606.3399999999999,142.67000000000002" fill="#1D0A5B"/><rect x="606.33" y="107" width="35.67" height="35.67" fill="#1D0A5B"/><polygon points="606.33,107 642,107 606.33,142.67000000000002" fill="#ff7518"/><rect x="642" y="71.33333333333333" width="71.33333333333333" height="71.33333333333333" fill="#ffffff"/><rect x="642" y="71.33" width="35.67" height="35.67" fill="#ff7518"/><path d="M 642 107 A 35.67 35.67 0 0 0 677.67 71.33 L 642 71.33" fill="#ff7518"/><rect x="677.67" y="71.33" width="35.67" height="35.67" fill="#ff7518"/><path d="M 677.67 71.33 A 35.67 35.67 0 0 0 713.3399999999999 107 L 713.3399999999999 71.33" fill="#1D0A5B"/><rect x="642" y="107" width="35.67" height="35.67" fill="#1D0A5B"/><path d="M 642 107 A 35.67 35.67 0 0 1 677.67 142.67000000000002 L 642 142.67000000000002" fill="#ff7518"/><rect x="677.67" y="107" width="35.67" height="35.67" fill="#ff7518"/><path d="M 677.67 142.67000000000002 A 35.67 35.67 0 0 1  713.3399999999999 107 L 713.3399999999999 142.67000000000002" fill="#1D0A5B"/><rect x="713.33" y="71.33" width="71.33" height="71.33" fill="#ff7518"/><path d="M 713.33 142.66 A 71.33 71.33 0 0 1  784.6600000000001 71.33 L 713.33 142.66 A 71.33 71.33 0 0 0 784.6600000000001 71.33" fill="#1D0A5B"/><rect x="784.67" y="71.33" width="71.33" height="71.33" fill="#ff7518"/><polygon points="784.67,71.33 856,142.66 784.67,142.66" fill="#1D0A5B"/><rect x="856" y="71.33" width="71.33" height="71.33" fill="#1D0A5B"/><polygon points="856,71.33 927.33,71.33 856,142.66" fill="#1D0A5B"/><rect x="927.3333333333333" y="71.33333333333333" width="71.33333333333333" height="71.33333333333333" fill="#ffffff"/><rect x="927.33" y="71.33" width="35.67" height="35.67" fill="#1D0A5B"/><path d="M 927.33 71.33 A 35.67 35.67 0 0 1 963 107 L 927.33 107" fill="#1D0A5B"/><rect x="963" y="71.33" width="35.67" height="35.67" fill="#1D0A5B"/><path d="M 963 107 A 35.67 35.67 0 0 1  998.67 71.33 L 998.67 107" fill="#ff7518"/><rect x="927.33" y="107" width="35.67" height="35.67" fill="#ff7518"/><path d="M 927.33 142.67000000000002 A 35.67 35.67 0 0 0 963 107 L 927.33 107" fill="#ff7518"/><rect x="963" y="107" width="35.67" height="35.67" fill="#1D0A5B"/><path d="M 963 107 A 35.67 35.67 0 0 0 998.67 142.67000000000002 L 998.67 107" fill="#1D0A5B"/><rect x="0" y="142.67" width="71.33" height="71.33" fill="#ff7518"/><path d="M 0 214 A 71.33 71.33 0 0 1  71.33 142.67 L 0 214 A 71.33 71.33 0 0 0 71.33 142.67" fill="#ff7518"/><rect x="71.33333333333333" y="142.66666666666666" width="71.33333333333333" height="71.33333333333333" fill="#ffffff"/><rect x="71.33" y="142.67" width="35.67" height="35.67" fill="#ff7518"/><polygon points="107,142.67 107,178.33999999999997 71.33,178.33999999999997" fill="#1D0A5B"/><rect x="107" y="142.67" width="35.67" height="35.67" fill="#1D0A5B"/><polygon points="107,142.67 142.67000000000002,178.33999999999997 107,178.33999999999997" fill="#1D0A5B"/><rect x="71.33" y="178.33" width="35.67" height="35.67" fill="#ff7518"/><polygon points="71.33,178.33 107,178.33 71.33,214" fill="#ff7518"/><rect x="107" y="178.33" width="35.67" height="35.67" fill="#ff7518"/><polygon points="107,178.33 142.67000000000002,178.33 142.67000000000002,214" fill="#1D0A5B"/><rect x="142.67" y="142.67" width="71.33" height="71.33" fill="#ff7518"/><rect x="142.67" y="142.67" width="71.33" height="71.33" fill="#1D0A5B"/><rect x="214" y="142.67" width="71.33" height="71.33" fill="#ff7518"/><path d="M 214 142.67 A 71.33 71.33 0 0 1 285.33 214 L 214 214" fill="#1D0A5B"/><rect x="285.33" y="142.67" width="71.33" height="71.33" fill="#1D0A5B"/><rect x="285.33" y="142.67" width="71.33" height="71.33" fill="#1D0A5B"/><rect x="356.66666666666663" y="142.66666666666666" width="71.33333333333333" height="71.33333333333333" fill="#ffffff"/><rect x="356.67" y="142.67" width="35.67" height="35.67" fill="#ff7518"/><path d="M 356.67 142.67 A 35.67 35.67 0 0 0 392.34000000000003 178.33999999999997 L 392.34000000000003 142.67" fill="#1D0A5B"/><rect x="392.33" y="142.67" width="35.67" height="35.67" fill="#ff7518"/><path d="M 392.33 178.33999999999997 A 35.67 35.67 0 0 0 428 142.67 L 392.33 142.67" fill="#ff7518"/><rect x="356.67" y="178.33" width="35.67" height="35.67" fill="#ff7518"/><path d="M 356.67 214 A 35.67 35.67 0 0 1  392.34000000000003 178.33 L 392.34000000000003 214" fill="#1D0A5B"/><rect x="392.33" y="178.33" width="35.67" height="35.67" fill="#1D0A5B"/><path d="M 392.33 178.33 A 35.67 35.67 0 0 1 428 214 L 392.33 214" fill="#1D0A5B"/><rect x="428" y="142.67" width="71.33" height="71.33" fill="#1D0A5B"/><rect x="428" y="142.67" width="71.33" height="71.33" fill="#1D0A5B"/><rect x="499.33" y="142.67" width="71.33" height="71.33" fill="#1D0A5B"/><path d="M 499.33 214 A 71.33 71.33 0 0 1  570.66 142.67 L 570.66 214" fill="#1D0A5B"/><rect x="570.6666666666666" y="142.66666666666666" width="71.33333333333333" height="71.33333333333333" fill="#ffffff"/><rect x="570.67" y="142.67" width="35.67" height="35.67" fill="#ff7518"/><path d="M 570.67 142.67 A 35.67 35.67 0 0 1 606.3399999999999 178.33999999999997 L 570.67 178.33999999999997" fill="#1D0A5B"/><rect x="606.33" y="142.67" width="35.67" height="35.67" fill="#ff7518"/><path d="M 606.33 178.33999999999997 A 35.67 35.67 0 0 1  642 142.67 L 642 178.33999999999997" fill="#1D0A5B"/><rect x="570.67" y="178.33" width="35.67" height="35.67" fill="#1D0A5B"/><path d="M 570.67 214 A 35.67 35.67 0 0 0 606.3399999999999 178.33 L 570.67 178.33" fill="#ff7518"/><rect x="606.33" y="178.33" width="35.67" height="35.67" fill="#1D0A5B"/><path d="M 606.33 178.33 A 35.67 35.67 0 0 0 642 214 L 642 178.33" fill="#1D0A5B"/><rect x="642" y="142.67" width="71.33" height="71.33" fill="#ff7518"/><polygon points="713.33,142.67 713.33,214 642,214" fill="#ff7518"/><rect x="713.3333333333333" y="142.66666666666666" width="71.33333333333333" height="71.33333333333333" fill="#ffffff"/><rect x="713.33" y="142.67" width="35.67" height="35.67" fill="#ff7518"/><polygon points="749,142.67 749,178.33999999999997 713.33,178.33999999999997" fill="#1D0A5B"/><rect x="749" y="142.67" width="35.67" height="35.67" fill="#1D0A5B"/><polygon points="749,142.67 784.67,178.33999999999997 749,178.33999999999997" fill="#1D0A5B"/><rect x="713.33" y="178.33" width="35.67" height="35.67" fill="#1D0A5B"/><polygon points="713.33,178.33 749,178.33 713.33,214" fill="#1D0A5B"/><rect x="749" y="178.33" width="35.67" height="35.67" fill="#ff7518"/><polygon points="749,178.33 784.67,178.33 784.67,214" fill="#1D0A5B"/><rect x="784.67" y="142.67" width="71.33" height="71.33" fill="#1D0A5B"/><rect x="784.67" y="142.67" width="71.33" height="71.33" fill="#1D0A5B"/><rect x="856" y="142.67" width="71.33" height="71.33" fill="#1D0A5B"/><polygon points="856,142.67 927.33,142.67 856,214" fill="#ff7518"/><rect x="927.33" y="142.67" width="71.33" height="71.33" fill="#ff7518"/><path d="M 927.33 214 A 71.33 71.33 0 0 1  998.6600000000001 142.67 L 927.33 214 A 71.33 71.33 0 0 0 998.6600000000001 142.67" fill="#1D0A5B"/><rect x="0" y="214" width="71.33333333333333" height="71.33333333333333" fill="#ffffff"/><rect x="0" y="214" width="35.67" height="35.67" fill="#ff7518"/><path d="M 0 214 A 35.67 35.67 0 0 0 35.67 249.67000000000002 L 35.67 214" fill="#1D0A5B"/><rect x="35.67" y="214" width="35.67" height="35.67" fill="#1D0A5B"/><path d="M 35.67 249.67000000000002 A 35.67 35.67 0 0 0 71.34 214 L 35.67 214" fill="#1D0A5B"/><rect x="0" y="249.67" width="35.67" height="35.67" fill="#1D0A5B"/><path d="M 0 285.34 A 35.67 35.67 0 0 1  35.67 249.67 L 35.67 285.34" fill="#1D0A5B"/><rect x="35.67" y="249.67" width="35.67" height="35.67" fill="#ff7518"/><path d="M 35.67 249.67 A 35.67 35.67 0 0 1 71.34 285.34 L 35.67 285.34" fill="#ff7518"/><rect x="71.33333333333333" y="214" width="71.33333333333333" height="71.33333333333333" fill="#ffffff"/><rect x="71.33" y="214" width="35.67" height="35.67" fill="#ff7518"/><path d="M 71.33 249.67000000000002 A 35.67 35.67 0 0 1  107 214 L 107 249.67000000000002" fill="#ff7518"/><rect x="107" y="214" width="35.67" height="35.67" fill="#1D0A5B"/><path d="M 107 214 A 35.67 35.67 0 0 1 142.67000000000002 249.67000000000002 L 107 249.67000000000002" fill="#ff7518"/><rect x="71.33" y="249.67" width="35.67" height="35.67" fill="#1D0A5B"/><path d="M 71.33 249.67 A 35.67 35.67 0 0 0 107 285.34 L 107 249.67" fill="#ff7518"/><rect x="107" y="249.67" width="35.67" height="35.67" fill="#1D0A5B"/><path d="M 107 285.34 A 35.67 35.67 0 0 0 142.67000000000002 249.67 L 107 249.67" fill="#1D0A5B"/><rect x="142.66666666666666" y="214" width="71.33333333333333" height="71.33333333333333" fill="#ffffff"/><rect x="142.67" y="214" width="35.67" height="35.67" fill="#1D0A5B"/><path d="M 142.67 249.67000000000002 A 35.67 35.67 0 0 1  178.33999999999997 214 L 178.33999999999997 249.67000000000002" fill="#ff7518"/><rect x="178.33" y="214" width="35.67" height="35.67" fill="#1D0A5B"/><path d="M 178.33 214 A 35.67 35.67 0 0 1 214 249.67000000000002 L 178.33 249.67000000000002" fill="#ff7518"/><rect x="142.67" y="249.67" width="35.67" height="35.67" fill="#ff7518"/><path d="M 142.67 249.67 A 35.67 35.67 0 0 0 178.33999999999997 285.34 L 178.33999999999997 249.67" fill="#1D0A5B"/><rect x="178.33" y="249.67" width="35.67" height="35.67" fill="#1D0A5B"/><path d="M 178.33 285.34 A 35.67 35.67 0 0 0 214 249.67 L 178.33 249.67" fill="#1D0A5B"/><rect x="214" y="214" width="71.33333333333333" height="71.33333333333333" fill="#ffffff"/><rect x="214" y="214" width="35.67" height="35.67" fill="#1D0A5B"/><path d="M 214 249.67000000000002 A 35.67 35.67 0 0 1  249.67000000000002 214 L 249.67000000000002 249.67000000000002" fill="#ff7518"/><rect x="249.67" y="214" width="35.67" height="35.67" fill="#ff7518"/><path d="M 249.67 214 A 35.67 35.67 0 0 1 285.34 249.67000000000002 L 249.67 249.67000000000002" fill="#ff7518"/><rect x="214" y="249.67" width="35.67" height="35.67" fill="#1D0A5B"/><path d="M 214 249.67 A 35.67 35.67 0 0 0 249.67000000000002 285.34 L 249.67000000000002 249.67" fill="#ff7518"/><rect x="249.67" y="249.67" width="35.67" height="35.67" fill="#ff7518"/><path d="M 249.67 285.34 A 35.67 35.67 0 0 0 285.34 249.67 L 249.67 249.67" fill="#ff7518"/><rect x="285.33" y="214" width="71.33" height="71.33" fill="#ff7518"/><rect x="285.33" y="214" width="71.33" height="71.33" fill="#ff7518"/><rect x="356.66666666666663" y="214" width="71.33333333333333" height="71.33333333333333" fill="#ffffff"/><rect x="356.67" y="214" width="35.67" height="35.67" fill="#ff7518"/><polygon points="392.34000000000003,214 392.34000000000003,249.67000000000002 356.67,249.67000000000002" fill="#1D0A5B"/><rect x="392.33" y="214" width="35.67" height="35.67" fill="#ff7518"/><polygon points="392.33,214 428,249.67000000000002 392.33,249.67000000000002" fill="#1D0A5B"/><rect x="356.67" y="249.67" width="35.67" height="35.67" fill="#1D0A5B"/><polygon points="356.67,249.67 392.34000000000003,249.67 356.67,285.34" fill="#ff7518"/><rect x="392.33" y="249.67" width="35.67" height="35.67" fill="#ff7518"/><polygon points="392.33,249.67 428,249.67 428,285.34" fill="#1D0A5B"/><rect x="428" y="214" width="71.33333333333333" height="71.33333333333333" fill="#ffffff"/><rect x="428" y="214" width="35.67" height="35.67" fill="#ff7518"/><path d="M 428 249.67000000000002 A 35.67 35.67 0 0 1 463.67 214 L 463.67 222.9175 A 26.7525 26.7525 0 0 0 436.9175 249.67000000000002" fill="#ff7518"/><rect x="463.67" y="214" width="35.67" height="35.67" fill="#ff7518"/><path d="M 463.67 214 A 35.67 35.67 0 0 1 499.34000000000003 249.67000000000002 L 490.4225 249.67000000000002 A 26.7525 26.7525 0 0 0 463.67 222.9175" fill="#1D0A5B"/><rect x="428" y="249.67" width="35.67" height="35.67" fill="#1D0A5B"/><path d="M 428 249.67 A 35.67 35.67 0 0 0 463.67 285.34 L 463.67 276.4225 A 26.7525 26.7525 0 0 1 436.9175 249.67" fill="#ff7518"/><rect x="463.67" y="249.67" width="35.67" height="35.67" fill="#ff7518"/><path d="M 463.67 285.34 A 35.67 35.67 0 0 0 499.34000000000003 249.67 L 490.4225 249.67 A 26.7525 26.7525 0 0 1 463.67 276.4225" fill="#1D0A5B"/><rect x="499.3333333333333" y="214" width="71.33333333333333" height="71.33333333333333" fill="#ffffff"/><rect x="499.33" y="214" width="35.67" height="35.67" fill="#ff7518"/><polygon points="535,214 535,249.67000000000002 499.33,249.67000000000002" fill="#1D0A5B"/><rect x="535" y="214" width="35.67" height="35.67" fill="#ff7518"/><polygon points="535,214 570.67,249.67000000000002 535,249.67000000000002" fill="#ff7518"/><rect x="499.33" y="249.67" width="35.67" height="35.67" fill="#1D0A5B"/><polygon points="499.33,249.67 535,249.67 535,285.34" fill="#ff7518"/><rect x="535" y="249.67" width="35.67" height="35.67" fill="#ff7518"/><polygon points="535,249.67 570.67,249.67 535,285.34" fill="#1D0A5B"/><rect x="570.67" y="214" width="71.33" height="71.33" fill="#1D0A5B"/><path d="M 570.67 214 A 71.33 71.33 0 0 1  642 285.33 L 570.67 214 A 71.33 71.33 0 0 0 642 285.33" fill="#ff7518"/><rect x="642" y="214" width="71.33" height="71.33" fill="#ff7518"/><rect x="642" y="214" width="71.33" height="71.33" fill="#1D0A5B"/><rect x="713.3333333333333" y="214" width="71.33333333333333" height="71.33333333333333" fill="#ffffff"/><rect x="713.33" y="214" width="35.67" height="35.67" fill="#1D0A5B"/><path d="M 713.33 249.67000000000002 A 35.67 35.67 0 0 0 749 214 L 713.33 214" fill="#ff7518"/><rect x="749" y="214" width="35.67" height="35.67" fill="#1D0A5B"/><path d="M 749 214 A 35.67 35.67 0 0 0 784.67 249.67000000000002 L 784.67 214" fill="#1D0A5B"/><rect x="713.33" y="249.67" width="35.67" height="35.67" fill="#1D0A5B"/><path d="M 713.33 249.67 A 35.67 35.67 0 0 1 749 285.34 L 713.33 285.34" fill="#1D0A5B"/><rect x="749" y="249.67" width="35.67" height="35.67" fill="#ff7518"/><path d="M 749 285.34 A 35.67 35.67 0 0 1  784.67 249.67 L 784.67 285.34" fill="#ff7518"/><rect x="784.67" y="214" width="71.33" height="71.33" fill="#ff7518"/><rect x="784.67" y="214" width="71.33" height="71.33" fill="#1D0A5B"/><rect x="856" y="214" width="71.33333333333333" height="71.33333333333333" fill="#ffffff"/><rect x="856" y="214" width="35.67" height="35.67" fill="#ff7518"/><path d="M 856 249.67000000000002 A 35.67 35.67 0 0 1  891.67 214 L 891.67 249.67000000000002" fill="#1D0A5B"/><rect x="891.67" y="214" width="35.67" height="35.67" fill="#1D0A5B"/><path d="M 891.67 214 A 35.67 35.67 0 0 1 927.3399999999999 249.67000000000002 L 891.67 249.67000000000002" fill="#1D0A5B"/><rect x="856" y="249.67" width="35.67" height="35.67" fill="#1D0A5B"/><path d="M 856 249.67 A 35.67 35.67 0 0 0 891.67 285.34 L 891.67 249.67" fill="#ff7518"/><rect x="891.67" y="249.67" width="35.67" height="35.67" fill="#ff7518"/><path d="M 891.67 285.34 A 35.67 35.67 0 0 0 927.3399999999999 249.67 L 891.67 249.67" fill="#ff7518"/><rect x="927.3333333333333" y="214" width="71.33333333333333" height="71.33333333333333" fill="#ffffff"/><rect x="927.33" y="214" width="35.67" height="35.67" fill="#1D0A5B"/><path d="M 927.33 249.67000000000002 A 35.67 35.67 0 0 0 963 214 L 927.33 214" fill="#ff7518"/><rect x="963" y="214" width="35.67" height="35.67" fill="#ff7518"/><path d="M 963 214 A 35.67 35.67 0 0 0 998.67 249.67000000000002 L 998.67 214" fill="#1D0A5B"/><rect x="927.33" y="249.67" width="35.67" height="35.67" fill="#1D0A5B"/><path d="M 927.33 249.67 A 35.67 35.67 0 0 1 963 285.34 L 927.33 285.34" fill="#1D0A5B"/><rect x="963" y="249.67" width="35.67" height="35.67" fill="#1D0A5B"/><path d="M 963 285.34 A 35.67 35.67 0 0 1  998.67 249.67 L 998.67 285.34" fill="#ff7518"/><rect x="0" y="285.3333333333333" width="71.33333333333333" height="71.33333333333333" fill="#ffffff"/><rect x="0" y="285.33" width="35.67" height="35.67" fill="#1D0A5B"/><polygon points="35.67,285.33 35.67,321 0,321" fill="#ff7518"/><rect x="35.67" y="285.33" width="35.67" height="35.67" fill="#ff7518"/><polygon points="35.67,285.33 71.34,321 35.67,321" fill="#ff7518"/><rect x="0" y="321" width="35.67" height="35.67" fill="#1D0A5B"/><polygon points="0,321 35.67,321 0,356.67" fill="#ff7518"/><rect x="35.67" y="321" width="35.67" height="35.67" fill="#ff7518"/><polygon points="35.67,321 71.34,321 71.34,356.67" fill="#1D0A5B"/><rect x="71.33333333333333" y="285.3333333333333" width="71.33333333333333" height="71.33333333333333" fill="#ffffff"/><rect x="71.33" y="285.33" width="35.67" height="35.67" fill="#1D0A5B"/><path d="M 71.33 321 A 35.67 35.67 0 0 1  107 285.33 L 107 321" fill="#ff7518"/><rect x="107" y="285.33" width="35.67" height="35.67" fill="#1D0A5B"/><path d="M 107 285.33 A 35.67 35.67 0 0 1 142.67000000000002 321 L 107 321" fill="#ff7518"/><rect x="71.33" y="321" width="35.67" height="35.67" fill="#1D0A5B"/><path d="M 71.33 321 A 35.67 35.67 0 0 0 107 356.67 L 107 321" fill="#ff7518"/><rect x="107" y="321" width="35.67" height="35.67" fill="#ff7518"/><path d="M 107 356.67 A 35.67 35.67 0 0 0 142.67000000000002 321 L 107 321" fill="#ff7518"/><rect x="142.66666666666666" y="285.3333333333333" width="71.33333333333333" height="71.33333333333333" fill="#ffffff"/><rect x="142.67" y="285.33" width="35.67" height="35.67" fill="#ff7518"/><polygon points="178.33999999999997,285.33 178.33999999999997,321 142.67,321" fill="#ff7518"/><rect x="178.33" y="285.33" width="35.67" height="35.67" fill="#1D0A5B"/><polygon points="178.33,285.33 214,321 178.33,321" fill="#ff7518"/><rect x="142.67" y="321" width="35.67" height="35.67" fill="#1D0A5B"/><polygon points="142.67,321 178.33999999999997,321 142.67,356.67" fill="#1D0A5B"/><rect x="178.33" y="321" width="35.67" height="35.67" fill="#1D0A5B"/><polygon points="178.33,321 214,321 214,356.67" fill="#ff7518"/><rect x="214" y="285.3333333333333" width="71.33333333333333" height="71.33333333333333" fill="#ffffff"/><rect x="214" y="285.33" width="35.67" height="35.67" fill="#ff7518"/><polygon points="249.67000000000002,285.33 249.67000000000002,321 214,321" fill="#ff7518"/><rect x="249.67" y="285.33" width="35.67" height="35.67" fill="#1D0A5B"/><polygon points="249.67,285.33 285.34,321 249.67,321" fill="#ff7518"/><rect x="214" y="321" width="35.67" height="35.67" fill="#ff7518"/><polygon points="214,321 249.67000000000002,321 249.67000000000002,356.67" fill="#1D0A5B"/><rect x="249.67" y="321" width="35.67" height="35.67" fill="#ff7518"/><polygon points="249.67,321 285.34,321 249.67,356.67" fill="#1D0A5B"/><rect x="285.33" y="285.33" width="71.33" height="71.33" fill="#1D0A5B"/><rect x="285.33" y="285.33" width="71.33" height="71.33" fill="#ff7518"/><rect x="356.66666666666663" y="285.3333333333333" width="71.33333333333333" height="71.33333333333333" fill="#ffffff"/><rect x="356.67" y="285.33" width="35.67" height="35.67" fill="#ff7518"/><path d="M 356.67 285.33 A 35.67 35.67 0 0 1 392.34000000000003 321 L 356.67 321" fill="#1D0A5B"/><rect x="392.33" y="285.33" width="35.67" height="35.67" fill="#1D0A5B"/><path d="M 392.33 321 A 35.67 35.67 0 0 1  428 285.33 L 428 321" fill="#1D0A5B"/><rect x="356.67" y="321" width="35.67" height="35.67" fill="#1D0A5B"/><path d="M 356.67 356.67 A 35.67 35.67 0 0 0 392.34000000000003 321 L 356.67 321" fill="#ff7518"/><rect x="392.33" y="321" width="35.67" height="35.67" fill="#ff7518"/><path d="M 392.33 321 A 35.67 35.67 0 0 0 428 356.67 L 428 321" fill="#1D0A5B"/><rect x="428" y="285.33" width="71.33" height="71.33" fill="#ff7518"/><polygon points="499.33,285.33 499.33,356.65999999999997 428,356.65999999999997" fill="#ff7518"/><rect x="499.33" y="285.33" width="71.33" height="71.33" fill="#1D0A5B"/><polygon points="570.66,285.33 570.66,356.65999999999997 499.33,356.65999999999997" fill="#1D0A5B"/><rect x="570.67" y="285.33" width="71.33" height="71.33" fill="#1D0A5B"/><rect x="570.67" y="285.33" width="71.33" height="71.33" fill="#ff7518"/><rect x="642" y="285.33" width="71.33" height="71.33" fill="#1D0A5B"/><polygon points="642,285.33 713.33,285.33 713.33,356.65999999999997" fill="#ff7518"/><rect x="713.3333333333333" y="285.3333333333333" width="71.33333333333333" height="71.33333333333333" fill="#ffffff"/><rect x="713.33" y="285.33" width="35.67" height="35.67" fill="#1D0A5B"/><circle cx="731.1650000000001" cy="303.16499999999996" r="17.835" fill="#1D0A5B"/><rect x="749" y="285.33" width="35.67" height="35.67" fill="#ff7518"/><rect x="749" y="285.33" width="35.67" height="35.67" fill="#1D0A5B"/><rect x="713.33" y="321" width="35.67" height="35.67" fill="#1D0A5B"/><circle cx="731.1650000000001" cy="338.835" r="17.835" fill="#1D0A5B"/><rect x="749" y="321" width="35.67" height="35.67" fill="#1D0A5B"/><rect x="749" y="321" width="35.67" height="35.67" fill="#1D0A5B"/><rect x="784.67" y="285.33" width="71.33" height="71.33" fill="#ff7518"/><polygon points="784.67,285.33 856,285.33 856,356.65999999999997" fill="#1D0A5B"/><rect x="856" y="285.3333333333333" width="71.33333333333333" height="71.33333333333333" fill="#ffffff"/><rect x="856" y="285.33" width="35.67" height="35.67" fill="#1D0A5B"/><path d="M 856 321 A 35.67 35.67 0 0 1 891.67 285.33 L 891.67 294.2475 A 26.7525 26.7525 0 0 0 864.9175 321" fill="#ff7518"/><rect x="891.67" y="285.33" width="35.67" height="35.67" fill="#ff7518"/><path d="M 891.67 285.33 A 35.67 35.67 0 0 1 927.3399999999999 321 L 918.4225 321 A 26.7525 26.7525 0 0 0 891.67 294.2475" fill="#ff7518"/><rect x="856" y="321" width="35.67" height="35.67" fill="#1D0A5B"/><path d="M 856 321 A 35.67 35.67 0 0 0 891.67 356.67 L 891.67 347.7525 A 26.7525 26.7525 0 0 1 864.9175 321" fill="#ff7518"/><rect x="891.67" y="321" width="35.67" height="35.67" fill="#1D0A5B"/><path d="M 891.67 356.67 A 35.67 35.67 0 0 0 927.3399999999999 321 L 918.4225 321 A 26.7525 26.7525 0 0 1 891.67 347.7525" fill="#ff7518"/><rect x="927.3333333333333" y="285.3333333333333" width="71.33333333333333" height="71.33333333333333" fill="#ffffff"/><rect x="927.33" y="285.33" width="35.67" height="35.67" fill="#1D0A5B"/><path d="M 927.33 285.33 A 35.67 35.67 0 0 1 963 321 L 927.33 321" fill="#1D0A5B"/><rect x="963" y="285.33" width="35.67" height="35.67" fill="#1D0A5B"/><path d="M 963 321 A 35.67 35.67 0 0 1  998.67 285.33 L 998.67 321" fill="#ff7518"/><rect x="927.33" y="321" width="35.67" height="35.67" fill="#1D0A5B"/><path d="M 927.33 356.67 A 35.67 35.67 0 0 0 963 321 L 927.33 321" fill="#1D0A5B"/><rect x="963" y="321" width="35.67" height="35.67" fill="#1D0A5B"/><path d="M 963 321 A 35.67 35.67 0 0 0 998.67 356.67 L 998.67 321" fill="#ff7518"/><rect x="0" y="356.67" width="71.33" height="71.33" fill="#ff7518"/><polygon points="0,356.67 71.33,428 0,428" fill="#ff7518"/><rect x="71.33" y="356.67" width="71.33" height="71.33" fill="#ff7518"/><path d="M 71.33 428 A 71.33 71.33 0 0 1  142.66 356.67 L 71.33 428 A 71.33 71.33 0 0 0 142.66 356.67" fill="#ff7518"/><rect x="142.66666666666666" y="356.66666666666663" width="71.33333333333333" height="71.33333333333333" fill="#ffffff"/><rect x="142.67" y="356.67" width="35.67" height="35.67" fill="#1D0A5B"/><circle cx="160.505" cy="374.505" r="17.835" fill="#ff7518"/><rect x="178.33" y="356.67" width="35.67" height="35.67" fill="#ff7518"/><rect x="178.33" y="356.67" width="35.67" height="35.67" fill="#ff7518"/><rect x="142.67" y="392.33" width="35.67" height="35.67" fill="#1D0A5B"/><circle cx="160.505" cy="410.16499999999996" r="17.835" fill="#1D0A5B"/><rect x="178.33" y="392.33" width="35.67" height="35.67" fill="#1D0A5B"/><rect x="178.33" y="392.33" width="35.67" height="35.67" fill="#1D0A5B"/><rect x="214" y="356.66666666666663" width="71.33333333333333" height="71.33333333333333" fill="#ffffff"/><rect x="214" y="356.67" width="35.67" height="35.67" fill="#1D0A5B"/><polygon points="249.67000000000002,356.67 249.67000000000002,392.34000000000003 214,392.34000000000003" fill="#ff7518"/><rect x="249.67" y="356.67" width="35.67" height="35.67" fill="#ff7518"/><polygon points="249.67,356.67 285.34,356.67 249.67,392.34000000000003" fill="#1D0A5B"/><rect x="214" y="392.33" width="35.67" height="35.67" fill="#1D0A5B"/><polygon points="214,392.33 249.67000000000002,392.33 249.67000000000002,428" fill="#1D0A5B"/><rect x="249.67" y="392.33" width="35.67" height="35.67" fill="#ff7518"/><polygon points="249.67,392.33 285.34,428 249.67,428" fill="#1D0A5B"/><rect x="285.3333333333333" y="356.66666666666663" width="71.33333333333333" height="71.33333333333333" fill="#ffffff"/><rect x="285.33" y="356.67" width="35.67" height="35.67" fill="#ff7518"/><circle cx="303.16499999999996" cy="374.505" r="17.835" fill="#ff7518"/><rect x="321" y="356.67" width="35.67" height="35.67" fill="#1D0A5B"/><rect x="321" y="356.67" width="35.67" height="35.67" fill="#1D0A5B"/><rect x="285.33" y="392.33" width="35.67" height="35.67" fill="#1D0A5B"/><circle cx="303.16499999999996" cy="410.16499999999996" r="17.835" fill="#1D0A5B"/><rect x="321" y="392.33" width="35.67" height="35.67" fill="#ff7518"/><rect x="321" y="392.33" width="35.67" height="35.67" fill="#ff7518"/><rect x="356.67" y="356.67" width="71.33" height="71.33" fill="#1D0A5B"/><path d="M 356.67 428 A 71.33 71.33 0 0 1  428 356.67 L 428 428" fill="#1D0A5B"/><rect x="428" y="356.67" width="71.33" height="71.33" fill="#1D0A5B"/><path d="M 428 356.67 A 71.33 71.33 0 0 0 499.33 428 L 499.33 356.67" fill="#1D0A5B"/><rect x="499.33" y="356.67" width="71.33" height="71.33" fill="#1D0A5B"/><polygon points="570.66,356.67 570.66,428 499.33,428" fill="#1D0A5B"/><rect x="570.67" y="356.67" width="71.33" height="71.33" fill="#1D0A5B"/><path d="M 570.67 428 A 71.33 71.33 0 0 1  642 356.67 L 570.67 428 A 71.33 71.33 0 0 0 642 356.67" fill="#ff7518"/><rect x="642" y="356.67" width="71.33" height="71.33" fill="#ff7518"/><path d="M 642 356.67 A 71.33 71.33 0 0 1  713.33 428 L 642 356.67 A 71.33 71.33 0 0 0 713.33 428" fill="#1D0A5B"/><rect x="713.3333333333333" y="356.66666666666663" width="71.33333333333333" height="71.33333333333333" fill="#ffffff"/><rect x="713.33" y="356.67" width="35.67" height="35.67" fill="#1D0A5B"/><path d="M 713.33 392.34000000000003 A 35.67 35.67 0 0 1  749 356.67 L 749 392.34000000000003" fill="#ff7518"/><rect x="749" y="356.67" width="35.67" height="35.67" fill="#1D0A5B"/><path d="M 749 356.67 A 35.67 35.67 0 0 1 784.67 392.34000000000003 L 749 392.34000000000003" fill="#1D0A5B"/><rect x="713.33" y="392.33" width="35.67" height="35.67" fill="#1D0A5B"/><path d="M 713.33 392.33 A 35.67 35.67 0 0 0 749 428 L 749 392.33" fill="#1D0A5B"/><rect x="749" y="392.33" width="35.67" height="35.67" fill="#ff7518"/><path d="M 749 428 A 35.67 35.67 0 0 0 784.67 392.33 L 749 392.33" fill="#ff7518"/><rect x="784.6666666666666" y="356.66666666666663" width="71.33333333333333" height="71.33333333333333" fill="#ffffff"/><rect x="784.67" y="356.67" width="35.67" height="35.67" fill="#ff7518"/><path d="M 784.67 392.34000000000003 A 35.67 35.67 0 0 1 820.3399999999999 356.67 L 820.3399999999999 365.58750000000003 A 26.7525 26.7525 0 0 0 793.5875 392.34000000000003" fill="#1D0A5B"/><rect x="820.33" y="356.67" width="35.67" height="35.67" fill="#ff7518"/><path d="M 820.33 356.67 A 35.67 35.67 0 0 1 856 392.34000000000003 L 847.0825000000001 392.34000000000003 A 26.7525 26.7525 0 0 0 820.33 365.58750000000003" fill="#ff7518"/><rect x="784.67" y="392.33" width="35.67" height="35.67" fill="#ff7518"/><path d="M 784.67 392.33 A 35.67 35.67 0 0 0 820.3399999999999 428 L 820.3399999999999 419.0825 A 26.7525 26.7525 0 0 1 793.5875 392.33" fill="#1D0A5B"/><rect x="820.33" y="392.33" width="35.67" height="35.67" fill="#1D0A5B"/><path d="M 820.33 428 A 35.67 35.67 0 0 0 856 392.33 L 847.0825000000001 392.33 A 26.7525 26.7525 0 0 1 820.33 419.0825" fill="#1D0A5B"/><rect x="856" y="356.66666666666663" width="71.33333333333333" height="71.33333333333333" fill="#ffffff"/><rect x="856" y="356.67" width="35.67" height="35.67" fill="#ff7518"/><polygon points="891.67,356.67 891.67,392.34000000000003 856,392.34000000000003" fill="#1D0A5B"/><rect x="891.67" y="356.67" width="35.67" height="35.67" fill="#1D0A5B"/><polygon points="891.67,356.67 927.3399999999999,392.34000000000003 891.67,392.34000000000003" fill="#ff7518"/><rect x="856" y="392.33" width="35.67" height="35.67" fill="#ff7518"/><polygon points="856,392.33 891.67,392.33 856,428" fill="#1D0A5B"/><rect x="891.67" y="392.33" width="35.67" height="35.67" fill="#1D0A5B"/><polygon points="891.67,392.33 927.3399999999999,392.33 927.3399999999999,428" fill="#1D0A5B"/><rect x="927.33" y="356.67" width="71.33" height="71.33" fill="#ff7518"/><rect x="927.33" y="356.67" width="71.33" height="71.33" fill="#1D0A5B"/><rect x="0" y="428" width="71.33333333333333" height="71.33333333333333" fill="#ffffff"/><rect x="0" y="428" width="35.67" height="35.67" fill="#ff7518"/><polygon points="35.67,428 35.67,463.67 0,463.67" fill="#1D0A5B"/><rect x="35.67" y="428" width="35.67" height="35.67" fill="#ff7518"/><polygon points="35.67,428 71.34,463.67 35.67,463.67" fill="#ff7518"/><rect x="0" y="463.67" width="35.67" height="35.67" fill="#ff7518"/><polygon points="0,463.67 35.67,463.67 35.67,499.34000000000003" fill="#1D0A5B"/><rect x="35.67" y="463.67" width="35.67" height="35.67" fill="#1D0A5B"/><polygon points="35.67,463.67 71.34,463.67 35.67,499.34000000000003" fill="#1D0A5B"/><rect x="71.33333333333333" y="428" width="71.33333333333333" height="71.33333333333333" fill="#ffffff"/><rect x="71.33" y="428" width="35.67" height="35.67" fill="#ff7518"/><path d="M 71.33 428 A 35.67 35.67 0 0 1 107 463.67 L 71.33 463.67" fill="#ff7518"/><rect x="107" y="428" width="35.67" height="35.67" fill="#ff7518"/><path d="M 107 463.67 A 35.67 35.67 0 0 1  142.67000000000002 428 L 142.67000000000002 463.67" fill="#ff7518"/><rect x="71.33" y="463.67" width="35.67" height="35.67" fill="#ff7518"/><path d="M 71.33 499.34000000000003 A 35.67 35.67 0 0 0 107 463.67 L 71.33 463.67" fill="#1D0A5B"/><rect x="107" y="463.67" width="35.67" height="35.67" fill="#1D0A5B"/><path d="M 107 463.67 A 35.67 35.67 0 0 0 142.67000000000002 499.34000000000003 L 142.67000000000002 463.67" fill="#1D0A5B"/><rect x="142.66666666666666" y="428" width="71.33333333333333" height="71.33333333333333" fill="#ffffff"/><rect x="142.67" y="428" width="35.67" height="35.67" fill="#1D0A5B"/><polygon points="178.33999999999997,428 178.33999999999997,463.67 142.67,463.67" fill="#1D0A5B"/><rect x="178.33" y="428" width="35.67" height="35.67" fill="#1D0A5B"/><polygon points="178.33,428 214,463.67 178.33,463.67" fill="#ff7518"/><rect x="142.67" y="463.67" width="35.67" height="35.67" fill="#1D0A5B"/><polygon points="142.67,463.67 178.33999999999997,463.67 142.67,499.34000000000003" fill="#1D0A5B"/><rect x="178.33" y="463.67" width="35.67" height="35.67" fill="#1D0A5B"/><polygon points="178.33,463.67 214,463.67 214,499.34000000000003" fill="#1D0A5B"/><rect x="214" y="428" width="71.33" height="71.33" fill="#1D0A5B"/><rect x="214" y="428" width="71.33" height="71.33" fill="#1D0A5B"/><rect x="285.33" y="428" width="71.33" height="71.33" fill="#1D0A5B"/><path d="M 285.33 499.33 A 71.33 71.33 0 0 1  356.65999999999997 428 L 285.33 499.33 A 71.33 71.33 0 0 0 356.65999999999997 428" fill="#ff7518"/><rect x="356.67" y="428" width="71.33" height="71.33" fill="#ff7518"/><path d="M 356.67 428 A 71.33 71.33 0 0 1  428 499.33 L 356.67 428 A 71.33 71.33 0 0 0 428 499.33" fill="#1D0A5B"/><rect x="428" y="428" width="71.33" height="71.33" fill="#1D0A5B"/><path d="M 428 499.33 A 71.33 71.33 0 0 1  499.33 428 L 428 499.33 A 71.33 71.33 0 0 0 499.33 428" fill="#ff7518"/><rect x="499.33" y="428" width="71.33" height="71.33" fill="#1D0A5B"/><rect x="499.33" y="428" width="71.33" height="71.33" fill="#1D0A5B"/><rect x="570.67" y="428" width="71.33" height="71.33" fill="#1D0A5B"/><rect x="570.67" y="428" width="71.33" height="71.33" fill="#1D0A5B"/><rect x="642" y="428" width="71.33" height="71.33" fill="#ff7518"/><polygon points="642,428 713.33,499.33 642,499.33" fill="#ff7518"/><rect x="713.3333333333333" y="428" width="71.33333333333333" height="71.33333333333333" fill="#ffffff"/><rect x="713.33" y="428" width="35.67" height="35.67" fill="#1D0A5B"/><path d="M 713.33 428 A 35.67 35.67 0 0 1 749 463.67 L 713.33 463.67" fill="#ff7518"/><rect x="749" y="428" width="35.67" height="35.67" fill="#ff7518"/><path d="M 749 463.67 A 35.67 35.67 0 0 1  784.67 428 L 784.67 463.67" fill="#ff7518"/><rect x="713.33" y="463.67" width="35.67" height="35.67" fill="#1D0A5B"/><path d="M 713.33 499.34000000000003 A 35.67 35.67 0 0 0 749 463.67 L 713.33 463.67" fill="#1D0A5B"/><rect x="749" y="463.67" width="35.67" height="35.67" fill="#1D0A5B"/><path d="M 749 463.67 A 35.67 35.67 0 0 0 784.67 499.34000000000003 L 784.67 463.67" fill="#1D0A5B"/><rect x="784.67" y="428" width="71.33" height="71.33" fill="#ff7518"/><polygon points="784.67,428 856,428 784.67,499.33" fill="#ff7518"/><rect x="856" y="428" width="71.33" height="71.33" fill="#1D0A5B"/><path d="M 856 499.33 A 71.33 71.33 0 0 0 927.33 428 L 856 428" fill="#1D0A5B"/><rect x="927.33" y="428" width="71.33" height="71.33" fill="#ff7518"/><polygon points="927.33,428 998.6600000000001,428 998.6600000000001,499.33" fill="#1D0A5B"/><rect x="0" y="499.3333333333333" width="71.33333333333333" height="71.33333333333333" fill="#ffffff"/><rect x="0" y="499.33" width="35.67" height="35.67" fill="#1D0A5B"/><path d="M 0 535 A 35.67 35.67 0 0 0 35.67 499.33 L 0 499.33" fill="#ff7518"/><rect x="35.67" y="499.33" width="35.67" height="35.67" fill="#1D0A5B"/><path d="M 35.67 499.33 A 35.67 35.67 0 0 0 71.34 535 L 71.34 499.33" fill="#1D0A5B"/><rect x="0" y="535" width="35.67" height="35.67" fill="#1D0A5B"/><path d="M 0 535 A 35.67 35.67 0 0 1 35.67 570.67 L 0 570.67" fill="#1D0A5B"/><rect x="35.67" y="535" width="35.67" height="35.67" fill="#ff7518"/><path d="M 35.67 570.67 A 35.67 35.67 0 0 1  71.34 535 L 71.34 570.67" fill="#1D0A5B"/><rect x="71.33333333333333" y="499.3333333333333" width="71.33333333333333" height="71.33333333333333" fill="#ffffff"/><rect x="71.33" y="499.33" width="35.67" height="35.67" fill="#ff7518"/><path d="M 71.33 535 A 35.67 35.67 0 0 1 107 499.33 L 107 508.2475 A 26.7525 26.7525 0 0 0 80.2475 535" fill="#1D0A5B"/><rect x="107" y="499.33" width="35.67" height="35.67" fill="#ff7518"/><path d="M 107 499.33 A 35.67 35.67 0 0 1 142.67000000000002 535 L 133.7525 535 A 26.7525 26.7525 0 0 0 107 508.2475" fill="#ff7518"/><rect x="71.33" y="535" width="35.67" height="35.67" fill="#ff7518"/><path d="M 71.33 535 A 35.67 35.67 0 0 0 107 570.67 L 107 561.7525 A 26.7525 26.7525 0 0 1 80.2475 535" fill="#ff7518"/><rect x="107" y="535" width="35.67" height="35.67" fill="#1D0A5B"/><path d="M 107 570.67 A 35.67 35.67 0 0 0 142.67000000000002 535 L 133.7525 535 A 26.7525 26.7525 0 0 1 107 561.7525" fill="#ff7518"/><rect x="142.67" y="499.33" width="71.33" height="71.33" fill="#ff7518"/><path d="M 142.67 499.33 A 71.33 71.33 0 0 0 214 570.66 L 214 499.33" fill="#1D0A5B"/><rect x="214" y="499.3333333333333" width="71.33333333333333" height="71.33333333333333" fill="#ffffff"/><rect x="214" y="499.33" width="35.67" height="35.67" fill="#ff7518"/><polygon points="249.67000000000002,499.33 249.67000000000002,535 214,535" fill="#ff7518"/><rect x="249.67" y="499.33" width="35.67" height="35.67" fill="#1D0A5B"/><polygon points="249.67,499.33 285.34,499.33 249.67,535" fill="#ff7518"/><rect x="214" y="535" width="35.67" height="35.67" fill="#ff7518"/><polygon points="214,535 249.67000000000002,535 249.67000000000002,570.67" fill="#1D0A5B"/><rect x="249.67" y="535" width="35.67" height="35.67" fill="#ff7518"/><polygon points="249.67,535 285.34,570.67 249.67,570.67" fill="#ff7518"/><rect x="285.3333333333333" y="499.3333333333333" width="71.33333333333333" height="71.33333333333333" fill="#ffffff"/><rect x="285.33" y="499.33" width="35.67" height="35.67" fill="#ff7518"/><path d="M 285.33 535 A 35.67 35.67 0 0 1 321 499.33 L 321 508.2475 A 26.7525 26.7525 0 0 0 294.2475 535" fill="#ff7518"/><rect x="321" y="499.33" width="35.67" height="35.67" fill="#1D0A5B"/><path d="M 321 499.33 A 35.67 35.67 0 0 1 356.67 535 L 347.7525 535 A 26.7525 26.7525 0 0 0 321 508.2475" fill="#1D0A5B"/><rect x="285.33" y="535" width="35.67" height="35.67" fill="#1D0A5B"/><path d="M 285.33 535 A 35.67 35.67 0 0 0 321 570.67 L 321 561.7525 A 26.7525 26.7525 0 0 1 294.2475 535" fill="#1D0A5B"/><rect x="321" y="535" width="35.67" height="35.67" fill="#1D0A5B"/><path d="M 321 570.67 A 35.67 35.67 0 0 0 356.67 535 L 347.7525 535 A 26.7525 26.7525 0 0 1 321 561.7525" fill="#1D0A5B"/><rect x="356.67" y="499.33" width="71.33" height="71.33" fill="#ff7518"/><path d="M 356.67 499.33 A 71.33 71.33 0 0 1  428 570.66 L 356.67 499.33 A 71.33 71.33 0 0 0 428 570.66" fill="#1D0A5B"/><rect x="428" y="499.3333333333333" width="71.33333333333333" height="71.33333333333333" fill="#ffffff"/><rect x="428" y="499.33" width="35.67" height="35.67" fill="#ff7518"/><path d="M 428 535 A 35.67 35.67 0 0 1  463.67 499.33 L 463.67 535" fill="#ff7518"/><rect x="463.67" y="499.33" width="35.67" height="35.67" fill="#ff7518"/><path d="M 463.67 499.33 A 35.67 35.67 0 0 1 499.34000000000003 535 L 463.67 535" fill="#1D0A5B"/><rect x="428" y="535" width="35.67" height="35.67" fill="#ff7518"/><path d="M 428 535 A 35.67 35.67 0 0 0 463.67 570.67 L 463.67 535" fill="#1D0A5B"/><rect x="463.67" y="535" width="35.67" height="35.67" fill="#1D0A5B"/><path d="M 463.67 570.67 A 35.67 35.67 0 0 0 499.34000000000003 535 L 463.67 535" fill="#ff7518"/><rect x="499.33" y="499.33" width="71.33" height="71.33" fill="#1D0A5B"/><path d="M 499.33 499.33 A 71.33 71.33 0 0 1  570.66 570.66 L 499.33 499.33 A 71.33 71.33 0 0 0 570.66 570.66" fill="#ff7518"/><rect x="570.6666666666666" y="499.3333333333333" width="71.33333333333333" height="71.33333333333333" fill="#ffffff"/><rect x="570.67" y="499.33" width="35.67" height="35.67" fill="#1D0A5B"/><path d="M 570.67 499.33 A 35.67 35.67 0 0 0 606.3399999999999 535 L 606.3399999999999 499.33" fill="#1D0A5B"/><rect x="606.33" y="499.33" width="35.67" height="35.67" fill="#1D0A5B"/><path d="M 606.33 535 A 35.67 35.67 0 0 0 642 499.33 L 606.33 499.33" fill="#ff7518"/><rect x="570.67" y="535" width="35.67" height="35.67" fill="#ff7518"/><path d="M 570.67 570.67 A 35.67 35.67 0 0 1  606.3399999999999 535 L 606.3399999999999 570.67" fill="#1D0A5B"/><rect x="606.33" y="535" width="35.67" height="35.67" fill="#1D0A5B"/><path d="M 606.33 535 A 35.67 35.67 0 0 1 642 570.67 L 606.33 570.67" fill="#1D0A5B"/><rect x="642" y="499.33" width="71.33" height="71.33" fill="#1D0A5B"/><rect x="642" y="499.33" width="71.33" height="71.33" fill="#1D0A5B"/><rect x="713.33" y="499.33" width="71.33" height="71.33" fill="#ff7518"/><polygon points="713.33,499.33 784.6600000000001,499.33 713.33,570.66" fill="#1D0A5B"/><rect x="784.6666666666666" y="499.3333333333333" width="71.33333333333333" height="71.33333333333333" fill="#ffffff"/><rect x="784.67" y="499.33" width="35.67" height="35.67" fill="#ff7518"/><path d="M 784.67 535 A 35.67 35.67 0 0 1  820.3399999999999 499.33 L 820.3399999999999 535" fill="#ff7518"/><rect x="820.33" y="499.33" width="35.67" height="35.67" fill="#1D0A5B"/><path d="M 820.33 499.33 A 35.67 35.67 0 0 1 856 535 L 820.33 535" fill="#ff7518"/><rect x="784.67" y="535" width="35.67" height="35.67" fill="#1D0A5B"/><path d="M 784.67 535 A 35.67 35.67 0 0 0 820.3399999999999 570.67 L 820.3399999999999 535" fill="#ff7518"/><rect x="820.33" y="535" width="35.67" height="35.67" fill="#ff7518"/><path d="M 820.33 570.67 A 35.67 35.67 0 0 0 856 535 L 820.33 535" fill="#ff7518"/><rect x="856" y="499.33" width="71.33" height="71.33" fill="#1D0A5B"/><rect x="856" y="499.33" width="71.33" height="71.33" fill="#1D0A5B"/><rect x="927.3333333333333" y="499.3333333333333" width="71.33333333333333" height="71.33333333333333" fill="#ffffff"/><rect x="927.33" y="499.33" width="35.67" height="35.67" fill="#1D0A5B"/><circle cx="945.1650000000001" cy="517.165" r="17.835" fill="#1D0A5B"/><rect x="963" y="499.33" width="35.67" height="35.67" fill="#1D0A5B"/><rect x="963" y="499.33" width="35.67" height="35.67" fill="#ff7518"/><rect x="927.33" y="535" width="35.67" height="35.67" fill="#1D0A5B"/><circle cx="945.1650000000001" cy="552.835" r="17.835" fill="#ff7518"/><rect x="963" y="535" width="35.67" height="35.67" fill="#ff7518"/><rect x="963" y="535" width="35.67" height="35.67" fill="#1D0A5B"/><rect x="0" y="570.6666666666666" width="71.33333333333333" height="71.33333333333333" fill="#ffffff"/><rect x="0" y="570.67" width="35.67" height="35.67" fill="#ff7518"/><path d="M 0 570.67 A 35.67 35.67 0 0 1 35.67 606.3399999999999 L 0 606.3399999999999" fill="#1D0A5B"/><rect x="35.67" y="570.67" width="35.67" height="35.67" fill="#ff7518"/><path d="M 35.67 606.3399999999999 A 35.67 35.67 0 0 1  71.34 570.67 L 71.34 606.3399999999999" fill="#ff7518"/><rect x="0" y="606.33" width="35.67" height="35.67" fill="#ff7518"/><path d="M 0 642 A 35.67 35.67 0 0 0 35.67 606.33 L 0 606.33" fill="#1D0A5B"/><rect x="35.67" y="606.33" width="35.67" height="35.67" fill="#ff7518"/><path d="M 35.67 606.33 A 35.67 35.67 0 0 0 71.34 642 L 71.34 606.33" fill="#ff7518"/><rect x="71.33" y="570.67" width="71.33" height="71.33" fill="#1D0A5B"/><path d="M 71.33 642 A 71.33 71.33 0 0 0 142.66 570.67 L 71.33 570.67" fill="#1D0A5B"/><rect x="142.66666666666666" y="570.6666666666666" width="71.33333333333333" height="71.33333333333333" fill="#ffffff"/><rect x="142.67" y="570.67" width="35.67" height="35.67" fill="#1D0A5B"/><polygon points="178.33999999999997,570.67 178.33999999999997,606.3399999999999 142.67,606.3399999999999" fill="#1D0A5B"/><rect x="178.33" y="570.67" width="35.67" height="35.67" fill="#1D0A5B"/><polygon points="178.33,570.67 214,606.3399999999999 178.33,606.3399999999999" fill="#ff7518"/><rect x="142.67" y="606.33" width="35.67" height="35.67" fill="#ff7518"/><polygon points="142.67,606.33 178.33999999999997,606.33 178.33999999999997,642" fill="#1D0A5B"/><rect x="178.33" y="606.33" width="35.67" height="35.67" fill="#ff7518"/><polygon points="178.33,606.33 214,606.33 178.33,642" fill="#1D0A5B"/><rect x="214" y="570.67" width="71.33" height="71.33" fill="#1D0A5B"/><polygon points="214,570.67 285.33,570.67 214,642" fill="#1D0A5B"/><rect x="285.3333333333333" y="570.6666666666666" width="71.33333333333333" height="71.33333333333333" fill="#ffffff"/><rect x="285.33" y="570.67" width="35.67" height="35.67" fill="#ff7518"/><polygon points="321,570.67 321,606.3399999999999 285.33,606.3399999999999" fill="#1D0A5B"/><rect x="321" y="570.67" width="35.67" height="35.67" fill="#ff7518"/><polygon points="321,570.67 356.67,606.3399999999999 321,606.3399999999999" fill="#1D0A5B"/><rect x="285.33" y="606.33" width="35.67" height="35.67" fill="#ff7518"/><polygon points="285.33,606.33 321,606.33 321,642" fill="#ff7518"/><rect x="321" y="606.33" width="35.67" height="35.67" fill="#ff7518"/><polygon points="321,606.33 356.67,606.33 321,642" fill="#ff7518"/><rect x="356.66666666666663" y="570.6666666666666" width="71.33333333333333" height="71.33333333333333" fill="#ffffff"/><rect x="356.67" y="570.67" width="35.67" height="35.67" fill="#1D0A5B"/><polygon points="392.34000000000003,570.67 392.34000000000003,606.3399999999999 356.67,606.3399999999999" fill="#1D0A5B"/><rect x="392.33" y="570.67" width="35.67" height="35.67" fill="#1D0A5B"/><polygon points="392.33,570.67 428,606.3399999999999 392.33,606.3399999999999" fill="#ff7518"/><rect x="356.67" y="606.33" width="35.67" height="35.67" fill="#ff7518"/><polygon points="356.67,606.33 392.34000000000003,606.33 392.34000000000003,642" fill="#1D0A5B"/><rect x="392.33" y="606.33" width="35.67" height="35.67" fill="#ff7518"/><polygon points="392.33,606.33 428,606.33 392.33,642" fill="#ff7518"/><rect x="428" y="570.67" width="71.33" height="71.33" fill="#1D0A5B"/><path d="M 428 570.67 A 71.33 71.33 0 0 0 499.33 642 L 499.33 570.67" fill="#1D0A5B"/><rect x="499.33" y="570.67" width="71.33" height="71.33" fill="#ff7518"/><rect x="499.33" y="570.67" width="71.33" height="71.33" fill="#ff7518"/><rect x="570.6666666666666" y="570.6666666666666" width="71.33333333333333" height="71.33333333333333" fill="#ffffff"/><rect x="570.67" y="570.67" width="35.67" height="35.67" fill="#1D0A5B"/><path d="M 570.67 606.3399999999999 A 35.67 35.67 0 0 1 606.3399999999999 570.67 L 606.3399999999999 579.5875 A 26.7525 26.7525 0 0 0 579.5875 606.3399999999999" fill="#ff7518"/><rect x="606.33" y="570.67" width="35.67" height="35.67" fill="#ff7518"/><path d="M 606.33 570.67 A 35.67 35.67 0 0 1 642 606.3399999999999 L 633.0825000000001 606.3399999999999 A 26.7525 26.7525 0 0 0 606.33 579.5875" fill="#1D0A5B"/><rect x="570.67" y="606.33" width="35.67" height="35.67" fill="#ff7518"/><path d="M 570.67 606.33 A 35.67 35.67 0 0 0 606.3399999999999 642 L 606.3399999999999 633.0825000000001 A 26.7525 26.7525 0 0 1 579.5875 606.33" fill="#ff7518"/><rect x="606.33" y="606.33" width="35.67" height="35.67" fill="#1D0A5B"/><path d="M 606.33 642 A 35.67 35.67 0 0 0 642 606.33 L 633.0825000000001 606.33 A 26.7525 26.7525 0 0 1 606.33 633.0825000000001" fill="#ff7518"/><rect x="642" y="570.67" width="71.33" height="71.33" fill="#ff7518"/><path d="M 642 642 A 71.33 71.33 0 0 1  713.33 570.67 L 713.33 642" fill="#1D0A5B"/><rect x="713.3333333333333" y="570.6666666666666" width="71.33333333333333" height="71.33333333333333" fill="#ffffff"/><rect x="713.33" y="570.67" width="35.67" height="35.67" fill="#ff7518"/><polygon points="749,570.67 749,606.3399999999999 713.33,606.3399999999999" fill="#1D0A5B"/><rect x="749" y="570.67" width="35.67" height="35.67" fill="#1D0A5B"/><polygon points="749,570.67 784.67,606.3399999999999 749,606.3399999999999" fill="#ff7518"/><rect x="713.33" y="606.33" width="35.67" height="35.67" fill="#1D0A5B"/><polygon points="713.33,606.33 749,606.33 749,642" fill="#1D0A5B"/><rect x="749" y="606.33" width="35.67" height="35.67" fill="#ff7518"/><polygon points="749,606.33 784.67,606.33 749,642" fill="#ff7518"/><rect x="784.67" y="570.67" width="71.33" height="71.33" fill="#1D0A5B"/><path d="M 784.67 570.67 A 71.33 71.33 0 0 1 856 642 L 784.67 642" fill="#ff7518"/><rect x="856" y="570.67" width="71.33" height="71.33" fill="#1D0A5B"/><path d="M 856 570.67 A 71.33 71.33 0 0 0 927.33 642 L 927.33 570.67" fill="#ff7518"/><rect x="927.33" y="570.67" width="71.33" height="71.33" fill="#1D0A5B"/><rect x="927.33" y="570.67" width="71.33" height="71.33" fill="#ff7518"/></g></svg>