<svg width="81" height="70" viewBox="0 0 81 70" fill="none" xmlns="http://www.w3.org/2000/svg">
<path d="M57.9092 51.7159C53.7235 50.387 50.1084 49.2395 49.7154 45.9702C49.5336 44.463 49.6815 42.6914 50.1428 40.8423C51.5895 39.5027 52.788 37.5698 54.0163 34.5955C56.4618 33.7813 58.0204 31.9715 58.7796 29.0663C59.169 27.5781 58.6123 26.0485 57.2522 24.8544C57.3745 23.0489 57.2672 22.9502 57.1886 22.878L57.1028 22.8047H23.9675V24.8437C22.4018 26.0899 21.8144 27.5101 22.2213 29.0663C22.9797 31.9705 24.5386 33.7803 26.9863 34.5955C28.2143 37.5696 29.4119 39.5016 30.8566 40.8401C31.1825 42.1414 31.5144 44.068 31.2854 45.9702C30.8924 49.2395 27.2771 50.387 23.0912 51.7159C17.3453 53.5395 10.833 55.6072 10.833 63.8348C10.833 66.3951 20.0371 69.9999 40.5002 69.9999C60.9633 69.9999 70.1674 66.3951 70.1674 63.8348C70.1674 55.6073 63.6551 53.5396 57.9092 51.7159ZM37.0052 66.2508L32.1188 49.0983L38.0466 51.2308L37.6825 54.0554L38.7222 54.0352L37.0052 66.2508ZM43.8385 54.0554L43.4743 51.2308L49.4021 49.0983L44.5157 66.2508L42.7986 54.0352L43.8385 54.0554Z" fill="#1D0A5B"/>
<path d="M14.4103 11.3174L23.09 14.6165V19.5926H58.3155V14.6165L61.8584 13.2695V20.2742C61.107 20.3771 60.5313 20.9206 60.5313 21.5723C60.5313 22.1391 60.9649 22.6305 61.5919 22.81L60.5828 28.3084C60.5162 28.6725 60.6366 29.0408 60.912 29.3191C61.1872 29.5982 61.5892 29.7585 62.015 29.7585H64.6716C65.0975 29.7585 65.4995 29.5982 65.774 29.3191C66.05 29.041 66.1704 28.6727 66.1038 28.3084L65.0954 22.81C65.7233 22.6306 66.1576 22.1391 66.1576 21.5723C66.1576 20.9206 65.5813 20.3771 64.8292 20.2742V12.1412L66.9943 11.3185C67.4208 11.1583 67.6966 10.8005 67.6966 10.4088C67.6966 10.0192 67.4215 9.6626 66.9953 9.50018L43.1792 0.448984C42.3971 0.150664 41.5638 0 40.7021 0C39.8405 0 39.0074 0.150664 38.2259 0.448984L14.41 9.50018C13.9841 9.6626 13.709 10.0192 13.709 10.4088C13.7088 10.8016 13.9846 11.1582 14.4103 11.3174Z" fill="#1D0A5B"/>
</svg>
