<svg width="87" height="66" viewBox="0 0 87 66" fill="none" xmlns="http://www.w3.org/2000/svg">
<g clip-path="url(#clip0_668_752)">
<path d="M8.14355 2V8.22439L11.7278 7.38548V4.71909H83.4183V39.3885H26.3704L26.1843 42.1055H86.9998V2H8.14355Z" fill="#1D0A5B"/>
<path d="M13.848 24.9414C19.7114 24.9414 24.4646 21.3356 24.4646 16.8875C24.4646 12.4394 19.7114 8.8335 13.848 8.8335C7.98466 8.8335 3.23145 12.4394 3.23145 16.8875C3.23145 21.3356 7.98466 24.9414 13.848 24.9414Z" fill="#1D0A5B"/>
<path d="M22.8586 62.3697V48.0324V46.6812V44.8474H23.5338L24.5202 30.2909L42.8332 23.0948L40.427 19.5747L23.6838 26.1532H17.7101L13.6618 29.7133L9.74693 26.1532L1.14474 27.3357L0.594596 41.8417H4.23997L4.43724 44.8474H4.99294V46.6812V48.0324V62.3697H4.2622L0 63.0738V66.05H3.6287L7.86312 65.523L7.90202 66.05H12.5893V62.7302V62.3697V48.0324H15.2595V62.3697V62.7302V66.05H19.9523L19.9912 65.523L24.2229 66.05H27.8516V63.0738L23.5921 62.3697H22.8586Z" fill="#1D0A5B"/>
<path d="M76.5808 14.1665H30.6719V15.1846H76.5808V14.1665Z" fill="#1D0A5B"/>
<path d="M76.5808 10.5977H30.6719V11.6178H76.5808V10.5977Z" fill="#1D0A5B"/>
<path d="M76.5808 17.6484H30.6719V18.6686H76.5808V17.6484Z" fill="#1D0A5B"/>
<path d="M76.5809 20.9619H43.1641L43.8615 21.98H76.5809V20.9619Z" fill="#1D0A5B"/>
<path d="M40.085 25.4619H76.5804V24.4438H42.8523L40.085 25.4619Z" fill="#1D0A5B"/>
<path d="M30.6719 28.9631V29.0137H76.5808V27.9956H32.9613L30.6719 28.9631Z" fill="#1D0A5B"/>
<path d="M79.9375 32.9468H65.9033V36.9053H79.9375V32.9468Z" fill="#1D0A5B"/>
</g>
<defs>
<clipPath id="clip0_668_752">
<rect width="87" height="66" fill="white"/>
</clipPath>
</defs>
</svg>
