<svg width="78" height="53" viewBox="0 0 78 53" fill="none" xmlns="http://www.w3.org/2000/svg">
<g clip-path="url(#clip0_668_749)">
<path d="M17.55 0C20.1359 0 22.6158 0.872486 24.4443 2.42552C26.2728 3.97856 27.3 6.08493 27.3 8.28125C27.3 10.4776 26.2728 12.5839 24.4443 14.137C22.6158 15.69 20.1359 16.5625 17.55 16.5625C14.9641 16.5625 12.4842 15.69 10.6557 14.137C8.82723 12.5839 7.8 10.4776 7.8 8.28125C7.8 6.08493 8.82723 3.97856 10.6557 2.42552C12.4842 0.872486 14.9641 0 17.55 0ZM62.4 0C64.9859 0 67.4658 0.872486 69.2943 2.42552C71.1228 3.97856 72.15 6.08493 72.15 8.28125C72.15 10.4776 71.1228 12.5839 69.2943 14.137C67.4658 15.69 64.9859 16.5625 62.4 16.5625C59.8141 16.5625 57.3342 15.69 55.5057 14.137C53.6772 12.5839 52.65 10.4776 52.65 8.28125C52.65 6.08493 53.6772 3.97856 55.5057 2.42552C57.3342 0.872486 59.8141 0 62.4 0ZM0 30.9201C0 24.823 5.82562 19.875 13.0041 19.875H18.2081C20.1459 19.875 21.9862 20.2373 23.6438 20.8791C23.4853 21.6244 23.4122 22.4008 23.4122 23.1875C23.4122 27.1418 25.4597 30.6924 28.6894 33.125C28.665 33.125 28.6406 33.125 28.6041 33.125H2.59594C1.17 33.125 0 32.1313 0 30.9201ZM49.3959 33.125C49.3716 33.125 49.3472 33.125 49.3106 33.125C52.5525 30.6924 54.5878 27.1418 54.5878 23.1875C54.5878 22.4008 54.5025 21.6348 54.3563 20.8791C56.0138 20.227 57.8541 19.875 59.7919 19.875H64.9959C72.1744 19.875 78 24.823 78 30.9201C78 32.1416 76.83 33.125 75.4041 33.125H49.3959ZM27.3 23.1875C27.3 20.5519 28.5327 18.0243 30.7269 16.1606C32.921 14.297 35.897 13.25 39 13.25C42.103 13.25 45.079 14.297 47.2732 16.1606C49.4673 18.0243 50.7 20.5519 50.7 23.1875C50.7 25.8231 49.4673 28.3507 47.2732 30.2144C45.079 32.078 42.103 33.125 39 33.125C35.897 33.125 32.921 32.078 30.7269 30.2144C28.5327 28.3507 27.3 25.8231 27.3 23.1875ZM15.6 50.2361C15.6 42.6174 22.8759 36.4375 31.8459 36.4375H46.1541C55.1241 36.4375 62.4 42.6174 62.4 50.2361C62.4 51.7578 60.9497 53 59.1459 53H18.8541C17.0625 53 15.6 51.7682 15.6 50.2361Z" fill="#1D0A5B"/>
</g>
<defs>
<clipPath id="clip0_668_749">
<rect width="78" height="53" fill="white"/>
</clipPath>
</defs>
</svg>
